<?xml version="1.0" encoding="UTF-8"?>
<svg xmlns="http://www.w3.org/2000/svg" viewBox="0 0 513.7 513.7">
  <title>sunaan.com</title>
  <rect width="513.7" height="513.7" fill="#131c0e"/>
  <path fill="#eac27a" d="M375.17,231.4c-24.56,30.96-42.88,84.44-91.75,76.41,26.18-9.56,37.53-31.2,52.21-52.02,11.21-16.45,19.95-35.27,41.65-41.64-23.83-1.95-51.2-4.55-66.01,17.94-23.66,29.91-41.51,82.01-88.34,75.52,20.2-10.98,33.21-28.09,45.34-46.82,11.89-17.72,20.51-38.64,43.9-45.9-23.1-1.66-50.17-4.8-64.78,17.05-19.99,25.48-32.96,59.98-64.09,74.1-19.64,2.89-43.54,3.1-69.14-10.11-38.65-20.83,4.74-56.1,43.32-54.38,0,0-16.23-2.74-33.4,3.6-10.14,3.84-24.2,11.45-32.01,22.2-5.71,7.86-16.44,25.43,1.56,41.37,19.39,17.17,69,4.83,78.18,3.64,13.19-1.71,38.28-2.13,45.89-1.25,18.07,2.11,27.43,.64,40.04-.39,9.02-.73,16.15-2.56,22.69-1.01,17.35,4.11,34.8,1.87,52.21,.83,28.23-.49,44.45-24.66,59.7-45.01,13.79-18.21,21.47-41.88,46.12-50.9-22.6-1.9-49.08-4.52-63.3,16.77Z"/>
</svg>
