<svg xmlns:xlink="http://www.w3.org/1999/xlink" xmlns="http://www.w3.org/2000/svg" baseProfile="tiny-ps" version="1.1" viewBox="0 0 217.09 217.09" data-sanitized-data-name="Layer 2" data-name="Layer 2" id="Layer_2" width="217.09"  height="217.09" >
  <title>sunaan.com</title><defs>
    <style>
      .cls-1 {
        fill: #eac27a;
      }

      .cls-2 {
        fill: #131c0e;
      }
    </style>
  </defs>
  <g data-sanitized-data-name="Layer 1" data-name="Layer 1" id="Layer_1-2">
    <g>
      <rect height="217.09" width="217.09" class="cls-2"/>
      <path d="M185.3,90.71c-9.55-.8-20.74-1.91-26.75,7.09-10.38,13.09-18.12,35.69-38.77,32.29,11.06-4.04,15.86-13.19,22.06-21.98,4.74-6.95,8.43-14.91,17.6-17.6-10.07-.83-21.64-1.92-27.9,7.58-10,12.64-17.54,34.66-37.33,31.91,8.54-4.64,14.04-11.87,19.16-19.79,5.03-7.49,8.67-16.33,18.55-19.4-9.76-.7-21.2-2.03-27.38,7.21-8.45,10.77-13.93,25.35-27.08,31.31-8.3,1.22-18.4,1.31-29.22-4.27-16.33-8.8,2-23.71,18.31-22.98,0,0-6.86-1.16-14.11,1.52-4.28,1.62-10.23,4.84-13.53,9.38-2.41,3.32-6.95,10.75,.66,17.49,8.2,7.26,29.16,2.04,33.04,1.54,5.57-.72,16.18-.9,19.39-.53,7.64,.89,11.59,.27,16.92-.16,3.81-.31,6.83-1.08,9.59-.43,7.33,1.74,14.71,.79,22.06,.35,11.93-.21,18.78-10.42,25.23-19.02,5.83-7.69,9.07-17.7,19.49-21.51Z" class="cls-1"/>
    </g>
  </g>
</svg>